<svg xmlns="http://www.w3.org/2000/svg" xmlns:xlink="http://www.w3.org/1999/xlink" width="1228" zoomAndPan="magnify" viewBox="0 0 920.88 1003.499975" height="1338" preserveAspectRatio="xMidYMid meet" version="1.0"><defs><g/></defs><g fill="#222222" fill-opacity="1"><g transform="translate(0.35854, 962.516847)"><g><path d="M 80.015625 -19.875 L 38 -19.875 L 31.265625 0 L 2.5625 0 L 43.296875 -112.5625 L 75.046875 -112.5625 L 115.765625 0 L 86.75 0 Z M 72.953125 -41.046875 L 59 -82.25 L 45.21875 -41.046875 Z M 72.953125 -41.046875 "/></g></g></g><g fill="#222222" fill-opacity="1"><g transform="translate(118.522846, 962.516847)"><g><path d="M 137.421875 -112.5625 L 137.421875 0 L 110 0 L 110 -67.5 L 84.828125 0 L 62.6875 0 L 37.359375 -67.671875 L 37.359375 0 L 9.9375 0 L 9.9375 -112.5625 L 42.328125 -112.5625 L 73.921875 -34.640625 L 105.1875 -112.5625 Z M 137.421875 -112.5625 "/></g></g></g><g fill="#222222" fill-opacity="1"><g transform="translate(265.707158, 962.516847)"><g><path d="M 110.640625 0 L 83.21875 0 L 37.359375 -69.421875 L 37.359375 0 L 9.9375 0 L 9.9375 -112.5625 L 37.359375 -112.5625 L 83.21875 -42.8125 L 83.21875 -112.5625 L 110.640625 -112.5625 Z M 110.640625 0 "/></g></g></g><g fill="#222222" fill-opacity="1"><g transform="translate(386.27642, 962.516847)"><g><path d="M 37.359375 -112.5625 L 37.359375 0 L 9.9375 0 L 9.9375 -112.5625 Z M 37.359375 -112.5625 "/></g></g></g><g fill="#222222" fill-opacity="1"><g transform="translate(433.564242, 962.516847)"><g><path d="M 104.703125 -111.765625 L 62.53125 0 L 45.703125 0 L 3.53125 -111.765625 L 19.078125 -111.765625 L 54.203125 -15.390625 L 89.3125 -111.765625 Z M 104.703125 -111.765625 "/></g></g></g><g fill="#222222" fill-opacity="1"><g transform="translate(541.948327, 962.516847)"><g><path d="M 26.9375 -99.890625 L 26.9375 -62.53125 L 67.671875 -62.53125 L 67.671875 -50.515625 L 26.9375 -50.515625 L 26.9375 -12.03125 L 72.46875 -12.03125 L 72.46875 0 L 12.34375 0 L 12.34375 -111.921875 L 72.46875 -111.921875 L 72.46875 -99.890625 Z M 26.9375 -99.890625 "/></g></g></g><g fill="#222222" fill-opacity="1"><g transform="translate(624.198387, 962.516847)"><g><path d="M 71.1875 0 L 44.578125 -45.703125 L 26.9375 -45.703125 L 26.9375 0 L 12.34375 0 L 12.34375 -111.765625 L 48.421875 -111.765625 C 56.867188 -111.765625 64.003906 -110.316406 69.828125 -107.421875 C 75.648438 -104.535156 80.003906 -100.632812 82.890625 -95.71875 C 85.785156 -90.800781 87.234375 -85.191406 87.234375 -78.890625 C 87.234375 -71.191406 85.015625 -64.398438 80.578125 -58.515625 C 76.140625 -52.640625 69.484375 -48.742188 60.609375 -46.828125 L 88.671875 0 Z M 26.9375 -57.40625 L 48.421875 -57.40625 C 56.335938 -57.40625 62.269531 -59.351562 66.21875 -63.25 C 70.175781 -67.15625 72.15625 -72.367188 72.15625 -78.890625 C 72.15625 -85.515625 70.203125 -90.644531 66.296875 -94.28125 C 62.398438 -97.914062 56.441406 -99.734375 48.421875 -99.734375 L 26.9375 -99.734375 Z M 26.9375 -57.40625 "/></g></g></g><g fill="#222222" fill-opacity="1"><g transform="translate(721.67994, 962.516847)"><g><path d="M 47.78125 1.125 C 40.40625 1.125 33.800781 -0.179688 27.96875 -2.796875 C 22.144531 -5.421875 17.578125 -9.054688 14.265625 -13.703125 C 10.953125 -18.359375 9.242188 -23.734375 9.140625 -29.828125 L 24.6875 -29.828125 C 25.226562 -24.585938 27.394531 -20.175781 31.1875 -16.59375 C 34.976562 -13.007812 40.507812 -11.21875 47.78125 -11.21875 C 54.726562 -11.21875 60.207031 -12.953125 64.21875 -16.421875 C 68.226562 -19.898438 70.234375 -24.367188 70.234375 -29.828125 C 70.234375 -34.097656 69.054688 -37.566406 66.703125 -40.234375 C 64.347656 -42.910156 61.40625 -44.941406 57.875 -46.328125 C 54.351562 -47.722656 49.597656 -49.222656 43.609375 -50.828125 C 36.234375 -52.753906 30.328125 -54.675781 25.890625 -56.59375 C 21.453125 -58.519531 17.65625 -61.539062 14.5 -65.65625 C 11.351562 -69.769531 9.78125 -75.300781 9.78125 -82.25 C 9.78125 -88.34375 11.328125 -93.738281 14.421875 -98.4375 C 17.523438 -103.144531 21.882812 -106.78125 27.5 -109.34375 C 33.113281 -111.914062 39.554688 -113.203125 46.828125 -113.203125 C 57.296875 -113.203125 65.867188 -110.582031 72.546875 -105.34375 C 79.234375 -100.101562 83.003906 -93.15625 83.859375 -84.5 L 67.828125 -84.5 C 67.296875 -88.78125 65.050781 -92.550781 61.09375 -95.8125 C 57.132812 -99.070312 51.894531 -100.703125 45.375 -100.703125 C 39.28125 -100.703125 34.304688 -99.125 30.453125 -95.96875 C 26.609375 -92.8125 24.6875 -88.398438 24.6875 -82.734375 C 24.6875 -78.671875 25.835938 -75.359375 28.140625 -72.796875 C 30.441406 -70.234375 33.273438 -68.28125 36.640625 -66.9375 C 40.003906 -65.601562 44.734375 -64.082031 50.828125 -62.375 C 58.203125 -60.34375 64.132812 -58.335938 68.625 -56.359375 C 73.113281 -54.378906 76.960938 -51.332031 80.171875 -47.21875 C 83.378906 -43.101562 84.984375 -37.519531 84.984375 -30.46875 C 84.984375 -25.007812 83.539062 -19.875 80.65625 -15.0625 C 77.769531 -10.257812 73.492188 -6.359375 67.828125 -3.359375 C 62.160156 -0.367188 55.476562 1.125 47.78125 1.125 Z M 47.78125 1.125 "/></g></g></g><g fill="#222222" fill-opacity="1"><g transform="translate(815.794519, 962.516847)"><g><path d="M 26.9375 -99.890625 L 26.9375 -62.53125 L 67.671875 -62.53125 L 67.671875 -50.515625 L 26.9375 -50.515625 L 26.9375 -12.03125 L 72.46875 -12.03125 L 72.46875 0 L 12.34375 0 L 12.34375 -111.921875 L 72.46875 -111.921875 L 72.46875 -99.890625 Z M 26.9375 -99.890625 "/></g></g></g><path fill="#d82623" d="M 216.488281 267.425781 C 379.257812 -185.054688 888.050781 152.019531 635.832031 500.417969 C 639.320312 509.710938 641.0625 519.871094 641.0625 530.179688 C 641.0625 578.226562 602.292969 616.988281 554.230469 616.988281 C 506.167969 616.988281 467.398438 578.226562 467.398438 530.179688 C 467.398438 482.128906 506.167969 443.367188 554.230469 443.367188 C 559.167969 443.367188 563.957031 443.515625 568.605469 444.386719 C 711.339844 208.636719 445.183594 -95.195312 251.046875 251.023438 C 239.285156 255.8125 227.667969 261.183594 216.488281 267.425781 Z M 216.488281 267.425781 " fill-opacity="1" fill-rule="nonzero"/><path fill="#e25250" d="M 723.101562 310.25 C 1033.691406 677.375 487.144531 949.5625 311.449219 557.035156 C 301.722656 555.292969 292.28125 551.808594 283.28125 546.726562 C 241.75 522.628906 227.523438 469.644531 251.335938 428.125 C 275.4375 386.609375 328.730469 372.382812 369.964844 396.191406 C 411.496094 420.140625 425.726562 473.273438 401.910156 514.789062 C 399.589844 519.144531 396.683594 522.917969 393.78125 526.695312 C 526.640625 768.25 923.046875 689.714844 720.050781 348.429688 C 721.792969 335.65625 722.8125 323.027344 723.101562 310.25 Z M 723.101562 310.25 " fill-opacity="1" fill-rule="nonzero"/><path fill="#e56361" d="M 432.550781 727.605469 C -40.523438 812.816406 -3.0625 203.699219 424.707031 247.832031 C 431.242188 240.28125 438.648438 233.894531 447.796875 228.667969 C 489.324219 204.570312 542.613281 218.796875 566.425781 260.316406 C 590.53125 301.832031 576.300781 355.109375 534.773438 378.914062 C 493.246094 403.011719 439.953125 388.640625 416.140625 347.269531 C 413.527344 342.914062 411.640625 338.703125 409.898438 334.203125 C 134.15625 328.398438 4.054688 711.054688 401.039062 705.828125 C 411.203125 713.667969 421.515625 720.925781 432.550781 727.605469 Z M 432.550781 727.605469 " fill-opacity="1" fill-rule="nonzero"/></svg>