<svg xmlns="http://www.w3.org/2000/svg" xmlns:xlink="http://www.w3.org/1999/xlink" width="1301" zoomAndPan="magnify" viewBox="0 0 975.75 238.499993" height="318" preserveAspectRatio="xMidYMid meet" version="1.0"><defs><g/></defs><g fill="#222222" fill-opacity="1"><g transform="translate(257.578444, 158.666445)"><g><path d="M 62.359375 -15.5 L 29.625 -15.5 L 24.375 0 L 2 0 L 33.75 -87.734375 L 58.5 -87.734375 L 90.234375 0 L 67.609375 0 Z M 56.875 -32 L 46 -64.109375 L 35.25 -32 Z M 56.875 -32 "/></g></g></g><g fill="#222222" fill-opacity="1"><g transform="translate(349.688625, 158.666445)"><g><path d="M 107.109375 -87.734375 L 107.109375 0 L 85.734375 0 L 85.734375 -52.625 L 66.109375 0 L 48.875 0 L 29.125 -52.75 L 29.125 0 L 7.75 0 L 7.75 -87.734375 L 33 -87.734375 L 57.625 -27 L 81.984375 -87.734375 Z M 107.109375 -87.734375 "/></g></g></g><g fill="#222222" fill-opacity="1"><g transform="translate(464.420172, 158.666445)"><g><path d="M 86.234375 0 L 64.859375 0 L 29.125 -54.125 L 29.125 0 L 7.75 0 L 7.75 -87.734375 L 29.125 -87.734375 L 64.859375 -33.375 L 64.859375 -87.734375 L 86.234375 -87.734375 Z M 86.234375 0 "/></g></g></g><g fill="#222222" fill-opacity="1"><g transform="translate(558.405039, 158.666445)"><g><path d="M 29.125 -87.734375 L 29.125 0 L 7.75 0 L 7.75 -87.734375 Z M 29.125 -87.734375 "/></g></g></g><g fill="#222222" fill-opacity="1"><g transform="translate(595.266338, 158.666445)"><g><path d="M 81.609375 -87.109375 L 48.75 0 L 35.625 0 L 2.75 -87.109375 L 14.875 -87.109375 L 42.25 -12 L 69.609375 -87.109375 Z M 81.609375 -87.109375 "/></g></g></g><g fill="#222222" fill-opacity="1"><g transform="translate(679.752746, 158.666445)"><g><path d="M 21 -77.859375 L 21 -48.75 L 52.75 -48.75 L 52.75 -39.375 L 21 -39.375 L 21 -9.375 L 56.5 -9.375 L 56.5 0 L 9.625 0 L 9.625 -87.234375 L 56.5 -87.234375 L 56.5 -77.859375 Z M 21 -77.859375 "/></g></g></g><g fill="#222222" fill-opacity="1"><g transform="translate(743.867436, 158.666445)"><g><path d="M 55.5 0 L 34.75 -35.625 L 21 -35.625 L 21 0 L 9.625 0 L 9.625 -87.109375 L 37.75 -87.109375 C 44.332031 -87.109375 49.894531 -85.984375 54.4375 -83.734375 C 58.976562 -81.484375 62.367188 -78.441406 64.609375 -74.609375 C 66.859375 -70.773438 67.984375 -66.40625 67.984375 -61.5 C 67.984375 -55.5 66.253906 -50.207031 62.796875 -45.625 C 59.347656 -41.039062 54.164062 -38 47.25 -36.5 L 69.109375 0 Z M 21 -44.75 L 37.75 -44.75 C 43.914062 -44.75 48.539062 -46.269531 51.625 -49.3125 C 54.707031 -52.351562 56.25 -56.414062 56.25 -61.5 C 56.25 -66.65625 54.726562 -70.648438 51.6875 -73.484375 C 48.644531 -76.316406 44 -77.734375 37.75 -77.734375 L 21 -77.734375 Z M 21 -44.75 "/></g></g></g><g fill="#222222" fill-opacity="1"><g transform="translate(819.855218, 158.666445)"><g><path d="M 37.25 0.875 C 31.5 0.875 26.351562 -0.144531 21.8125 -2.1875 C 17.269531 -4.226562 13.707031 -7.0625 11.125 -10.6875 C 8.539062 -14.3125 7.207031 -18.5 7.125 -23.25 L 19.25 -23.25 C 19.664062 -19.164062 21.351562 -15.726562 24.3125 -12.9375 C 27.269531 -10.144531 31.582031 -8.75 37.25 -8.75 C 42.664062 -8.75 46.9375 -10.101562 50.0625 -12.8125 C 53.1875 -15.519531 54.75 -19 54.75 -23.25 C 54.75 -26.582031 53.832031 -29.289062 52 -31.375 C 50.164062 -33.457031 47.875 -35.039062 45.125 -36.125 C 42.375 -37.207031 38.664062 -38.375 34 -39.625 C 28.25 -41.125 23.644531 -42.625 20.1875 -44.125 C 16.726562 -45.625 13.769531 -47.976562 11.3125 -51.1875 C 8.851562 -54.394531 7.625 -58.703125 7.625 -64.109375 C 7.625 -68.859375 8.832031 -73.066406 11.25 -76.734375 C 13.664062 -80.398438 17.0625 -83.234375 21.4375 -85.234375 C 25.8125 -87.234375 30.832031 -88.234375 36.5 -88.234375 C 44.664062 -88.234375 51.347656 -86.191406 56.546875 -82.109375 C 61.753906 -78.023438 64.691406 -72.609375 65.359375 -65.859375 L 52.875 -65.859375 C 52.457031 -69.191406 50.707031 -72.128906 47.625 -74.671875 C 44.539062 -77.210938 40.457031 -78.484375 35.375 -78.484375 C 30.625 -78.484375 26.75 -77.253906 23.75 -74.796875 C 20.75 -72.335938 19.25 -68.898438 19.25 -64.484375 C 19.25 -61.328125 20.144531 -58.75 21.9375 -56.75 C 23.726562 -54.75 25.9375 -53.226562 28.5625 -52.1875 C 31.1875 -51.144531 34.875 -49.957031 39.625 -48.625 C 45.375 -47.039062 50 -45.476562 53.5 -43.9375 C 57 -42.394531 59.992188 -40.019531 62.484375 -36.8125 C 64.984375 -33.601562 66.234375 -29.25 66.234375 -23.75 C 66.234375 -19.5 65.109375 -15.5 62.859375 -11.75 C 60.617188 -8 57.289062 -4.957031 52.875 -2.625 C 48.457031 -0.289062 43.25 0.875 37.25 0.875 Z M 37.25 0.875 "/></g></g></g><g fill="#222222" fill-opacity="1"><g transform="translate(893.218412, 158.666445)"><g><path d="M 21 -77.859375 L 21 -48.75 L 52.75 -48.75 L 52.75 -39.375 L 21 -39.375 L 21 -9.375 L 56.5 -9.375 L 56.5 0 L 9.625 0 L 9.625 -87.234375 L 56.5 -87.234375 L 56.5 -77.859375 Z M 21 -77.859375 "/></g></g></g><path fill="#d82623" d="M 45.210938 78.210938 C 92.855469 -54.304688 241.777344 44.410156 167.957031 146.445312 C 168.976562 149.164062 169.484375 152.140625 169.484375 155.160156 C 169.484375 169.230469 158.136719 180.582031 144.070312 180.582031 C 130.003906 180.582031 118.652344 169.230469 118.652344 155.160156 C 118.652344 141.085938 130.003906 129.738281 144.070312 129.738281 C 145.515625 129.738281 146.917969 129.777344 148.277344 130.035156 C 190.054688 60.992188 112.152344 -27.988281 55.328125 73.40625 C 51.886719 74.808594 48.484375 76.382812 45.210938 78.210938 Z M 45.210938 78.210938 " fill-opacity="1" fill-rule="nonzero"/><path fill="#e25250" d="M 193.5 90.75 C 284.40625 198.269531 124.433594 277.980469 73.007812 163.023438 C 70.160156 162.515625 67.398438 161.496094 64.761719 160.007812 C 52.609375 152.949219 48.441406 137.429688 55.414062 125.273438 C 62.46875 113.113281 78.066406 108.945312 90.136719 115.917969 C 102.292969 122.933594 106.457031 138.496094 99.484375 150.652344 C 98.804688 151.929688 97.957031 153.035156 97.105469 154.140625 C 135.996094 224.882812 252.023438 201.882812 192.605469 101.933594 C 193.117188 98.191406 193.414062 94.492188 193.5 90.75 Z M 193.5 90.75 " fill-opacity="1" fill-rule="nonzero"/><path fill="#e56361" d="M 108.453125 212.976562 C -30.015625 237.933594 -19.046875 59.546875 106.160156 72.46875 C 108.070312 70.257812 110.238281 68.390625 112.917969 66.859375 C 125.070312 59.800781 140.667969 63.96875 147.640625 76.125 C 154.695312 88.285156 150.53125 103.886719 138.375 110.859375 C 126.21875 117.917969 110.621094 113.707031 103.652344 101.59375 C 102.886719 100.316406 102.332031 99.082031 101.824219 97.765625 C 21.113281 96.066406 -16.964844 208.132812 99.230469 206.601562 C 102.207031 208.898438 105.222656 211.023438 108.453125 212.976562 Z M 108.453125 212.976562 " fill-opacity="1" fill-rule="nonzero"/></svg>